<svg width="400" height="238" viewBox="0 0 400 238" fill="none" xmlns="http://www.w3.org/2000/svg">
<g filter="url(#filter0_f_276_102)">
<g filter="url(#filter1_d_276_102)">
<circle cx="127.308" cy="107.977" r="55.3081" fill="#FFDF4F"/>
</g>
<mask id="mask0_276_102" style="mask-type:alpha" maskUnits="userSpaceOnUse" x="72" y="52" width="111" height="112">
<circle cx="127.308" cy="107.977" r="55.3081" fill="#FFDF4F"/>
</mask>
<g mask="url(#mask0_276_102)">
<g style="mix-blend-mode:color-dodge" filter="url(#filter2_f_276_102)">
<path d="M161.251 166.496L72 78.3911L78.6891 67.1152L170.234 158.278L161.251 166.496Z" fill="#FCEC95" fill-opacity="0.62"/>
</g>
<g style="mix-blend-mode:color-dodge" filter="url(#filter3_f_276_102)">
<path d="M187.363 139.552L98.3125 52.5661L102.422 41.7314L193.967 132.894L187.363 139.552Z" fill="#FCEC95" fill-opacity="0.62"/>
</g>
<g style="mix-blend-mode:color-dodge" filter="url(#filter4_f_276_102)">
<path d="M177.661 147.601L89.0234 61.2334L91.0691 52.6689L182.614 143.831L177.661 147.601Z" fill="#FCEC95" fill-opacity="0.62"/>
</g>
</g>
<g filter="url(#filter5_i_276_102)">
<circle cx="127.208" cy="107.874" r="44.4735" fill="url(#paint0_linear_276_102)"/>
</g>
<g filter="url(#filter6_d_276_102)">
<path d="M108.734 132.613V83.2119H119.179V104.994H119.83L137.608 83.2119H150.127L131.795 105.331L150.344 132.613H137.849L124.317 112.303L119.179 118.574V132.613H108.734Z" fill="#FFEB95"/>
</g>
</g>
<g filter="url(#filter7_f_276_102)">
<g filter="url(#filter8_d_276_102)">
<circle cx="272.308" cy="99.3081" r="55.3081" fill="#FFDF4F"/>
</g>
<mask id="mask1_276_102" style="mask-type:alpha" maskUnits="userSpaceOnUse" x="217" y="44" width="111" height="111">
<circle cx="272.308" cy="99.3081" r="55.3081" fill="#FFDF4F"/>
</mask>
<g mask="url(#mask1_276_102)">
<g style="mix-blend-mode:color-dodge" filter="url(#filter9_f_276_102)">
<path d="M306.251 157.827L217 69.7222L223.689 58.4463L315.234 149.609L306.251 157.827Z" fill="#FCEC95" fill-opacity="0.62"/>
</g>
<g style="mix-blend-mode:color-dodge" filter="url(#filter10_f_276_102)">
<path d="M332.363 130.884L243.312 43.8971L247.422 33.0625L338.967 124.225L332.363 130.884Z" fill="#FCEC95" fill-opacity="0.62"/>
</g>
<g style="mix-blend-mode:color-dodge" filter="url(#filter11_f_276_102)">
<path d="M322.661 138.932L234.023 52.5645L236.069 44L327.614 135.162L322.661 138.932Z" fill="#FCEC95" fill-opacity="0.62"/>
</g>
</g>
<g filter="url(#filter12_i_276_102)">
<circle cx="272.208" cy="99.2049" r="44.4735" fill="url(#paint1_linear_276_102)"/>
</g>
<g filter="url(#filter13_d_276_102)">
<path d="M253.734 123.944V74.543H264.179V96.3248H264.83L282.608 74.543H295.127L276.795 96.6625L295.344 123.944H282.849L269.317 103.634L264.179 109.905V123.944H253.734Z" fill="#FFEB95"/>
</g>
</g>
<g filter="url(#filter14_d_276_102)">
<g filter="url(#filter15_d_276_102)">
<circle cx="194.308" cy="75.3081" r="55.3081" fill="#FFDF4F"/>
</g>
<mask id="mask2_276_102" style="mask-type:alpha" maskUnits="userSpaceOnUse" x="139" y="20" width="111" height="111">
<circle cx="194.308" cy="75.3081" r="55.3081" fill="#FFDF4F"/>
</mask>
<g mask="url(#mask2_276_102)">
<g style="mix-blend-mode:color-dodge" filter="url(#filter16_f_276_102)">
<path d="M228.251 133.827L139 45.7222L145.689 34.4463L237.234 125.609L228.251 133.827Z" fill="#FCEC95" fill-opacity="0.62"/>
</g>
<g style="mix-blend-mode:color-dodge" filter="url(#filter17_f_276_102)">
<path d="M254.363 106.884L165.312 19.8971L169.422 9.0625L260.967 100.225L254.363 106.884Z" fill="#FCEC95" fill-opacity="0.62"/>
</g>
<g style="mix-blend-mode:color-dodge" filter="url(#filter18_f_276_102)">
<path d="M244.661 114.932L156.023 28.5645L158.069 20L249.614 111.162L244.661 114.932Z" fill="#FCEC95" fill-opacity="0.62"/>
</g>
</g>
<g filter="url(#filter19_i_276_102)">
<circle cx="194.208" cy="75.2049" r="44.4735" fill="url(#paint2_linear_276_102)"/>
</g>
<g filter="url(#filter20_d_276_102)">
<path d="M175.734 99.944V50.543H186.179V72.3248H186.83L204.608 50.543H217.127L198.795 72.6625L217.344 99.944H204.849L191.317 79.6336L186.179 85.9052V99.944H175.734Z" fill="#FFEB95"/>
</g>
</g>
<g clip-path="url(#clip0_276_102)">
<rect y="88" width="400" height="150" rx="75" fill="white"/>
<rect y="88" width="400" height="150" fill="url(#paint3_linear_276_102)"/>
<g filter="url(#filter21_f_276_102)">
<path d="M125.537 237.5H57.6562L125.537 88H195.843L125.537 237.5Z" fill="#F9945F"/>
</g>
<path d="M119.333 156.211H113.286C113.053 154.919 112.62 153.782 111.987 152.8C111.354 151.818 110.578 150.984 109.661 150.299C108.743 149.615 107.716 149.098 106.579 148.749C105.454 148.4 104.259 148.225 102.993 148.225C100.705 148.225 98.6572 148.8 96.8481 149.95C95.0518 151.101 93.6303 152.787 92.5836 155.01C91.5498 157.232 91.0329 159.946 91.0329 163.151C91.0329 166.382 91.5498 169.108 92.5836 171.331C93.6303 173.554 95.0583 175.234 96.8674 176.371C98.6766 177.508 100.712 178.076 102.973 178.076C104.227 178.076 105.416 177.909 106.54 177.573C107.677 177.224 108.705 176.713 109.622 176.041C110.54 175.369 111.315 174.549 111.948 173.579C112.594 172.597 113.04 171.473 113.286 170.207L119.333 170.226C119.01 172.177 118.384 173.974 117.453 175.615C116.536 177.243 115.353 178.652 113.906 179.84C112.471 181.016 110.83 181.927 108.982 182.574C107.134 183.22 105.119 183.543 102.935 183.543C99.4972 183.543 96.4345 182.729 93.7466 181.1C91.0587 179.459 88.9394 177.114 87.3887 174.064C85.8509 171.014 85.082 167.377 85.082 163.151C85.082 158.912 85.8574 155.275 87.4081 152.238C88.9588 149.188 91.0781 146.849 93.766 145.221C96.4539 143.58 99.5101 142.759 102.935 142.759C105.041 142.759 107.005 143.063 108.827 143.67C110.662 144.265 112.31 145.143 113.77 146.306C115.23 147.456 116.439 148.865 117.395 150.532C118.351 152.186 118.997 154.079 119.333 156.211ZM138.577 183.601C135.785 183.601 133.35 182.961 131.269 181.682C129.188 180.403 127.573 178.613 126.423 176.313C125.273 174.012 124.698 171.324 124.698 168.249C124.698 165.16 125.273 162.46 126.423 160.146C127.573 157.833 129.188 156.037 131.269 154.758C133.35 153.478 135.785 152.839 138.577 152.839C141.368 152.839 143.804 153.478 145.884 154.758C147.965 156.037 149.58 157.833 150.73 160.146C151.88 162.46 152.456 165.16 152.456 168.249C152.456 171.324 151.88 174.012 150.73 176.313C149.58 178.613 147.965 180.403 145.884 181.682C143.804 182.961 141.368 183.601 138.577 183.601ZM138.596 178.736C140.405 178.736 141.904 178.257 143.093 177.301C144.282 176.345 145.161 175.072 145.729 173.483C146.311 171.893 146.602 170.142 146.602 168.229C146.602 166.33 146.311 164.585 145.729 162.996C145.161 161.393 144.282 160.108 143.093 159.138C141.904 158.169 140.405 157.685 138.596 157.685C136.774 157.685 135.262 158.169 134.06 159.138C132.871 160.108 131.986 161.393 131.405 162.996C130.836 164.585 130.552 166.33 130.552 168.229C130.552 170.142 130.836 171.893 131.405 173.483C131.986 175.072 132.871 176.345 134.06 177.301C135.262 178.257 136.774 178.736 138.596 178.736ZM164.721 165.322V183H158.925V153.226H164.488V158.072H164.856C165.541 156.496 166.614 155.229 168.074 154.273C169.547 153.317 171.402 152.839 173.637 152.839C175.666 152.839 177.443 153.265 178.968 154.118C180.493 154.958 181.675 156.211 182.515 157.878C183.355 159.546 183.775 161.607 183.775 164.062V183H177.979V164.76C177.979 162.602 177.417 160.915 176.293 159.701C175.169 158.473 173.624 157.859 171.66 157.859C170.316 157.859 169.121 158.15 168.074 158.731C167.04 159.313 166.22 160.166 165.612 161.29C165.018 162.401 164.721 163.745 164.721 165.322ZM215.952 153.226L205.155 183H198.953L188.136 153.226H194.359L201.899 176.138H202.209L209.73 153.226H215.952ZM221.399 183V153.226H227.195V183H221.399ZM224.326 148.632C223.318 148.632 222.452 148.296 221.729 147.624C221.018 146.94 220.663 146.125 220.663 145.182C220.663 144.226 221.018 143.412 221.729 142.74C222.452 142.055 223.318 141.712 224.326 141.712C225.334 141.712 226.193 142.055 226.904 142.74C227.628 143.412 227.99 144.226 227.99 145.182C227.99 146.125 227.628 146.94 226.904 147.624C226.193 148.296 225.334 148.632 224.326 148.632ZM246.138 183.582C243.734 183.582 241.589 182.968 239.702 181.74C237.829 180.499 236.355 178.736 235.283 176.448C234.223 174.148 233.693 171.389 233.693 168.171C233.693 164.954 234.23 162.201 235.302 159.914C236.388 157.627 237.874 155.875 239.761 154.661C241.647 153.446 243.786 152.839 246.177 152.839C248.025 152.839 249.511 153.149 250.635 153.769C251.772 154.376 252.651 155.087 253.271 155.901C253.904 156.715 254.395 157.433 254.744 158.053H255.093V143.302H260.889V183H255.229V178.367H254.744C254.395 179 253.891 179.724 253.232 180.538C252.586 181.352 251.695 182.063 250.557 182.67C249.42 183.278 247.947 183.582 246.138 183.582ZM247.417 178.639C249.084 178.639 250.493 178.199 251.643 177.321C252.806 176.429 253.685 175.195 254.279 173.618C254.886 172.042 255.19 170.207 255.19 168.113C255.19 166.046 254.893 164.236 254.298 162.686C253.704 161.135 252.832 159.927 251.682 159.061C250.531 158.195 249.11 157.762 247.417 157.762C245.673 157.762 244.219 158.214 243.056 159.119C241.893 160.024 241.014 161.258 240.42 162.821C239.838 164.385 239.547 166.149 239.547 168.113C239.547 170.103 239.845 171.893 240.439 173.483C241.033 175.072 241.912 176.332 243.075 177.262C244.251 178.18 245.698 178.639 247.417 178.639ZM277.826 183.659C275.939 183.659 274.233 183.31 272.708 182.612C271.183 181.902 269.975 180.874 269.083 179.53C268.205 178.186 267.765 176.539 267.765 174.587C267.765 172.907 268.088 171.525 268.735 170.439C269.381 169.354 270.253 168.494 271.351 167.861C272.45 167.228 273.677 166.75 275.034 166.427C276.391 166.104 277.774 165.858 279.182 165.69C280.966 165.483 282.413 165.315 283.524 165.186C284.636 165.044 285.443 164.818 285.947 164.508C286.451 164.198 286.703 163.694 286.703 162.996V162.86C286.703 161.167 286.225 159.856 285.269 158.925C284.326 157.995 282.917 157.53 281.043 157.53C279.092 157.53 277.554 157.962 276.43 158.828C275.319 159.681 274.55 160.631 274.123 161.678L268.676 160.437C269.323 158.628 270.266 157.168 271.506 156.056C272.76 154.932 274.201 154.118 275.829 153.614C277.457 153.097 279.17 152.839 280.966 152.839C282.155 152.839 283.415 152.981 284.746 153.265C286.09 153.537 287.343 154.04 288.506 154.777C289.682 155.514 290.645 156.567 291.394 157.937C292.144 159.294 292.519 161.057 292.519 163.228V183H286.858V178.929H286.626C286.251 179.679 285.689 180.415 284.939 181.139C284.19 181.863 283.227 182.464 282.051 182.942C280.875 183.42 279.467 183.659 277.826 183.659ZM279.086 179.007C280.688 179.007 282.058 178.69 283.195 178.057C284.345 177.424 285.217 176.597 285.812 175.576C286.419 174.542 286.723 173.437 286.723 172.261V168.423C286.516 168.63 286.115 168.824 285.521 169.005C284.939 169.173 284.274 169.321 283.524 169.451C282.775 169.567 282.045 169.677 281.334 169.78C280.623 169.871 280.029 169.948 279.551 170.013C278.426 170.155 277.399 170.394 276.469 170.73C275.551 171.066 274.815 171.551 274.259 172.184C273.716 172.804 273.445 173.631 273.445 174.665C273.445 176.099 273.975 177.185 275.034 177.921C276.094 178.645 277.444 179.007 279.086 179.007ZM300.238 183V153.226H305.84V157.956H306.15C306.693 156.354 307.649 155.094 309.019 154.176C310.402 153.246 311.965 152.781 313.71 152.781C314.072 152.781 314.498 152.793 314.989 152.819C315.493 152.845 315.887 152.877 316.172 152.916V158.46C315.939 158.395 315.526 158.324 314.931 158.247C314.337 158.156 313.742 158.111 313.148 158.111C311.778 158.111 310.557 158.402 309.484 158.983C308.425 159.552 307.585 160.347 306.964 161.368C306.344 162.376 306.034 163.526 306.034 164.818V183H300.238Z" fill="#F9F3F5"/>
</g>
<defs>
<filter id="filter0_f_276_102" x="68" y="48.6689" width="118.617" height="118.616" filterUnits="userSpaceOnUse" color-interpolation-filters="sRGB">
<feFlood flood-opacity="0" result="BackgroundImageFix"/>
<feBlend mode="normal" in="SourceGraphic" in2="BackgroundImageFix" result="shape"/>
<feGaussianBlur stdDeviation="2" result="effect1_foregroundBlur_276_102"/>
</filter>
<filter id="filter1_d_276_102" x="72" y="52.6689" width="116.396" height="112.886" filterUnits="userSpaceOnUse" color-interpolation-filters="sRGB">
<feFlood flood-opacity="0" result="BackgroundImageFix"/>
<feColorMatrix in="SourceAlpha" type="matrix" values="0 0 0 0 0 0 0 0 0 0 0 0 0 0 0 0 0 0 127 0" result="hardAlpha"/>
<feOffset dx="5.77846" dy="2.27011"/>
<feComposite in2="hardAlpha" operator="out"/>
<feColorMatrix type="matrix" values="0 0 0 0 0.980392 0 0 0 0 0.74902 0 0 0 0 0 0 0 0 1 0"/>
<feBlend mode="normal" in2="BackgroundImageFix" result="effect1_dropShadow_276_102"/>
<feBlend mode="normal" in="SourceGraphic" in2="effect1_dropShadow_276_102" result="shape"/>
</filter>
<filter id="filter2_f_276_102" x="70.803" y="65.9183" width="100.628" height="101.775" filterUnits="userSpaceOnUse" color-interpolation-filters="sRGB">
<feFlood flood-opacity="0" result="BackgroundImageFix"/>
<feBlend mode="normal" in="SourceGraphic" in2="BackgroundImageFix" result="shape"/>
<feGaussianBlur stdDeviation="0.598483" result="effect1_foregroundBlur_276_102"/>
</filter>
<filter id="filter3_f_276_102" x="97.1155" y="40.5345" width="98.0502" height="100.215" filterUnits="userSpaceOnUse" color-interpolation-filters="sRGB">
<feFlood flood-opacity="0" result="BackgroundImageFix"/>
<feBlend mode="normal" in="SourceGraphic" in2="BackgroundImageFix" result="shape"/>
<feGaussianBlur stdDeviation="0.598483" result="effect1_foregroundBlur_276_102"/>
</filter>
<filter id="filter4_f_276_102" x="87.8265" y="51.472" width="95.9877" height="97.3256" filterUnits="userSpaceOnUse" color-interpolation-filters="sRGB">
<feFlood flood-opacity="0" result="BackgroundImageFix"/>
<feBlend mode="normal" in="SourceGraphic" in2="BackgroundImageFix" result="shape"/>
<feGaussianBlur stdDeviation="0.598483" result="effect1_foregroundBlur_276_102"/>
</filter>
<filter id="filter5_i_276_102" x="82.7344" y="63.4004" width="89.1104" height="89.1124" filterUnits="userSpaceOnUse" color-interpolation-filters="sRGB">
<feFlood flood-opacity="0" result="BackgroundImageFix"/>
<feBlend mode="normal" in="SourceGraphic" in2="BackgroundImageFix" result="shape"/>
<feColorMatrix in="SourceAlpha" type="matrix" values="0 0 0 0 0 0 0 0 0 0 0 0 0 0 0 0 0 0 127 0" result="hardAlpha"/>
<feOffset dx="4.74659" dy="2.47648"/>
<feGaussianBlur stdDeviation="0.0825494"/>
<feComposite in2="hardAlpha" operator="arithmetic" k2="-1" k3="1"/>
<feColorMatrix type="matrix" values="0 0 0 0 0.992157 0 0 0 0 0.545098 0 0 0 0 0 0 0 0 1 0"/>
<feBlend mode="normal" in2="shape" result="effect1_innerShadow_276_102"/>
</filter>
<filter id="filter6_d_276_102" x="108.734" y="82.18" width="43.2604" height="50.4332" filterUnits="userSpaceOnUse" color-interpolation-filters="sRGB">
<feFlood flood-opacity="0" result="BackgroundImageFix"/>
<feColorMatrix in="SourceAlpha" type="matrix" values="0 0 0 0 0 0 0 0 0 0 0 0 0 0 0 0 0 0 127 0" result="hardAlpha"/>
<feOffset dx="1.65099" dy="-1.03187"/>
<feComposite in2="hardAlpha" operator="out"/>
<feColorMatrix type="matrix" values="0 0 0 0 0.960784 0 0 0 0 0.580392 0 0 0 0 0 0 0 0 1 0"/>
<feBlend mode="normal" in2="BackgroundImageFix" result="effect1_dropShadow_276_102"/>
<feBlend mode="normal" in="SourceGraphic" in2="effect1_dropShadow_276_102" result="shape"/>
</filter>
<filter id="filter7_f_276_102" x="214" y="41" width="116.617" height="116.616" filterUnits="userSpaceOnUse" color-interpolation-filters="sRGB">
<feFlood flood-opacity="0" result="BackgroundImageFix"/>
<feBlend mode="normal" in="SourceGraphic" in2="BackgroundImageFix" result="shape"/>
<feGaussianBlur stdDeviation="1.5" result="effect1_foregroundBlur_276_102"/>
</filter>
<filter id="filter8_d_276_102" x="217" y="44" width="116.396" height="112.886" filterUnits="userSpaceOnUse" color-interpolation-filters="sRGB">
<feFlood flood-opacity="0" result="BackgroundImageFix"/>
<feColorMatrix in="SourceAlpha" type="matrix" values="0 0 0 0 0 0 0 0 0 0 0 0 0 0 0 0 0 0 127 0" result="hardAlpha"/>
<feOffset dx="5.77846" dy="2.27011"/>
<feComposite in2="hardAlpha" operator="out"/>
<feColorMatrix type="matrix" values="0 0 0 0 0.980392 0 0 0 0 0.74902 0 0 0 0 0 0 0 0 1 0"/>
<feBlend mode="normal" in2="BackgroundImageFix" result="effect1_dropShadow_276_102"/>
<feBlend mode="normal" in="SourceGraphic" in2="effect1_dropShadow_276_102" result="shape"/>
</filter>
<filter id="filter9_f_276_102" x="215.803" y="57.2493" width="100.628" height="101.775" filterUnits="userSpaceOnUse" color-interpolation-filters="sRGB">
<feFlood flood-opacity="0" result="BackgroundImageFix"/>
<feBlend mode="normal" in="SourceGraphic" in2="BackgroundImageFix" result="shape"/>
<feGaussianBlur stdDeviation="0.598483" result="effect1_foregroundBlur_276_102"/>
</filter>
<filter id="filter10_f_276_102" x="242.116" y="31.8655" width="98.0502" height="100.215" filterUnits="userSpaceOnUse" color-interpolation-filters="sRGB">
<feFlood flood-opacity="0" result="BackgroundImageFix"/>
<feBlend mode="normal" in="SourceGraphic" in2="BackgroundImageFix" result="shape"/>
<feGaussianBlur stdDeviation="0.598483" result="effect1_foregroundBlur_276_102"/>
</filter>
<filter id="filter11_f_276_102" x="232.826" y="42.803" width="95.9877" height="97.3256" filterUnits="userSpaceOnUse" color-interpolation-filters="sRGB">
<feFlood flood-opacity="0" result="BackgroundImageFix"/>
<feBlend mode="normal" in="SourceGraphic" in2="BackgroundImageFix" result="shape"/>
<feGaussianBlur stdDeviation="0.598483" result="effect1_foregroundBlur_276_102"/>
</filter>
<filter id="filter12_i_276_102" x="227.734" y="54.7314" width="89.1104" height="89.1124" filterUnits="userSpaceOnUse" color-interpolation-filters="sRGB">
<feFlood flood-opacity="0" result="BackgroundImageFix"/>
<feBlend mode="normal" in="SourceGraphic" in2="BackgroundImageFix" result="shape"/>
<feColorMatrix in="SourceAlpha" type="matrix" values="0 0 0 0 0 0 0 0 0 0 0 0 0 0 0 0 0 0 127 0" result="hardAlpha"/>
<feOffset dx="4.74659" dy="2.47648"/>
<feGaussianBlur stdDeviation="0.0825494"/>
<feComposite in2="hardAlpha" operator="arithmetic" k2="-1" k3="1"/>
<feColorMatrix type="matrix" values="0 0 0 0 0.992157 0 0 0 0 0.545098 0 0 0 0 0 0 0 0 1 0"/>
<feBlend mode="normal" in2="shape" result="effect1_innerShadow_276_102"/>
</filter>
<filter id="filter13_d_276_102" x="253.734" y="73.5111" width="43.2604" height="50.4332" filterUnits="userSpaceOnUse" color-interpolation-filters="sRGB">
<feFlood flood-opacity="0" result="BackgroundImageFix"/>
<feColorMatrix in="SourceAlpha" type="matrix" values="0 0 0 0 0 0 0 0 0 0 0 0 0 0 0 0 0 0 127 0" result="hardAlpha"/>
<feOffset dx="1.65099" dy="-1.03187"/>
<feComposite in2="hardAlpha" operator="out"/>
<feColorMatrix type="matrix" values="0 0 0 0 0.960784 0 0 0 0 0.580392 0 0 0 0 0 0 0 0 1 0"/>
<feBlend mode="normal" in2="BackgroundImageFix" result="effect1_dropShadow_276_102"/>
<feBlend mode="normal" in="SourceGraphic" in2="effect1_dropShadow_276_102" result="shape"/>
</filter>
<filter id="filter14_d_276_102" x="115.9" y="0.9" width="156.817" height="156.816" filterUnits="userSpaceOnUse" color-interpolation-filters="sRGB">
<feFlood flood-opacity="0" result="BackgroundImageFix"/>
<feColorMatrix in="SourceAlpha" type="matrix" values="0 0 0 0 0 0 0 0 0 0 0 0 0 0 0 0 0 0 127 0" result="hardAlpha"/>
<feOffset dy="4"/>
<feGaussianBlur stdDeviation="11.55"/>
<feComposite in2="hardAlpha" operator="out"/>
<feColorMatrix type="matrix" values="0 0 0 0 0 0 0 0 0 0 0 0 0 0 0 0 0 0 0.25 0"/>
<feBlend mode="normal" in2="BackgroundImageFix" result="effect1_dropShadow_276_102"/>
<feBlend mode="normal" in="SourceGraphic" in2="effect1_dropShadow_276_102" result="shape"/>
</filter>
<filter id="filter15_d_276_102" x="139" y="20" width="116.396" height="112.886" filterUnits="userSpaceOnUse" color-interpolation-filters="sRGB">
<feFlood flood-opacity="0" result="BackgroundImageFix"/>
<feColorMatrix in="SourceAlpha" type="matrix" values="0 0 0 0 0 0 0 0 0 0 0 0 0 0 0 0 0 0 127 0" result="hardAlpha"/>
<feOffset dx="5.77846" dy="2.27011"/>
<feComposite in2="hardAlpha" operator="out"/>
<feColorMatrix type="matrix" values="0 0 0 0 0.980392 0 0 0 0 0.74902 0 0 0 0 0 0 0 0 1 0"/>
<feBlend mode="normal" in2="BackgroundImageFix" result="effect1_dropShadow_276_102"/>
<feBlend mode="normal" in="SourceGraphic" in2="effect1_dropShadow_276_102" result="shape"/>
</filter>
<filter id="filter16_f_276_102" x="137.803" y="33.2493" width="100.628" height="101.775" filterUnits="userSpaceOnUse" color-interpolation-filters="sRGB">
<feFlood flood-opacity="0" result="BackgroundImageFix"/>
<feBlend mode="normal" in="SourceGraphic" in2="BackgroundImageFix" result="shape"/>
<feGaussianBlur stdDeviation="0.598483" result="effect1_foregroundBlur_276_102"/>
</filter>
<filter id="filter17_f_276_102" x="164.116" y="7.86553" width="98.0502" height="100.215" filterUnits="userSpaceOnUse" color-interpolation-filters="sRGB">
<feFlood flood-opacity="0" result="BackgroundImageFix"/>
<feBlend mode="normal" in="SourceGraphic" in2="BackgroundImageFix" result="shape"/>
<feGaussianBlur stdDeviation="0.598483" result="effect1_foregroundBlur_276_102"/>
</filter>
<filter id="filter18_f_276_102" x="154.826" y="18.803" width="95.9877" height="97.3256" filterUnits="userSpaceOnUse" color-interpolation-filters="sRGB">
<feFlood flood-opacity="0" result="BackgroundImageFix"/>
<feBlend mode="normal" in="SourceGraphic" in2="BackgroundImageFix" result="shape"/>
<feGaussianBlur stdDeviation="0.598483" result="effect1_foregroundBlur_276_102"/>
</filter>
<filter id="filter19_i_276_102" x="149.734" y="30.7314" width="89.1104" height="89.1124" filterUnits="userSpaceOnUse" color-interpolation-filters="sRGB">
<feFlood flood-opacity="0" result="BackgroundImageFix"/>
<feBlend mode="normal" in="SourceGraphic" in2="BackgroundImageFix" result="shape"/>
<feColorMatrix in="SourceAlpha" type="matrix" values="0 0 0 0 0 0 0 0 0 0 0 0 0 0 0 0 0 0 127 0" result="hardAlpha"/>
<feOffset dx="4.74659" dy="2.47648"/>
<feGaussianBlur stdDeviation="0.0825494"/>
<feComposite in2="hardAlpha" operator="arithmetic" k2="-1" k3="1"/>
<feColorMatrix type="matrix" values="0 0 0 0 0.992157 0 0 0 0 0.545098 0 0 0 0 0 0 0 0 1 0"/>
<feBlend mode="normal" in2="shape" result="effect1_innerShadow_276_102"/>
</filter>
<filter id="filter20_d_276_102" x="175.734" y="49.5111" width="43.2604" height="50.4332" filterUnits="userSpaceOnUse" color-interpolation-filters="sRGB">
<feFlood flood-opacity="0" result="BackgroundImageFix"/>
<feColorMatrix in="SourceAlpha" type="matrix" values="0 0 0 0 0 0 0 0 0 0 0 0 0 0 0 0 0 0 127 0" result="hardAlpha"/>
<feOffset dx="1.65099" dy="-1.03187"/>
<feComposite in2="hardAlpha" operator="out"/>
<feColorMatrix type="matrix" values="0 0 0 0 0.960784 0 0 0 0 0.580392 0 0 0 0 0 0 0 0 1 0"/>
<feBlend mode="normal" in2="BackgroundImageFix" result="effect1_dropShadow_276_102"/>
<feBlend mode="normal" in="SourceGraphic" in2="effect1_dropShadow_276_102" result="shape"/>
</filter>
<filter id="filter21_f_276_102" x="48.5562" y="78.9" width="156.388" height="167.7" filterUnits="userSpaceOnUse" color-interpolation-filters="sRGB">
<feFlood flood-opacity="0" result="BackgroundImageFix"/>
<feBlend mode="normal" in="SourceGraphic" in2="BackgroundImageFix" result="shape"/>
<feGaussianBlur stdDeviation="4.55" result="effect1_foregroundBlur_276_102"/>
</filter>
<linearGradient id="paint0_linear_276_102" x1="106.777" y1="123.352" x2="160.434" y2="70.8298" gradientUnits="userSpaceOnUse">
<stop stop-color="#FAA200"/>
<stop offset="1" stop-color="#FEBD01"/>
</linearGradient>
<linearGradient id="paint1_linear_276_102" x1="251.777" y1="114.683" x2="305.434" y2="62.1609" gradientUnits="userSpaceOnUse">
<stop stop-color="#FAA200"/>
<stop offset="1" stop-color="#FEBD01"/>
</linearGradient>
<linearGradient id="paint2_linear_276_102" x1="173.777" y1="90.683" x2="227.434" y2="38.1609" gradientUnits="userSpaceOnUse">
<stop stop-color="#FAA200"/>
<stop offset="1" stop-color="#FEBD01"/>
</linearGradient>
<linearGradient id="paint3_linear_276_102" x1="4.4798e-06" y1="97.5588" x2="83.9846" y2="288.918" gradientUnits="userSpaceOnUse">
<stop offset="0.25" stop-color="#FD8540"/>
<stop offset="1" stop-color="#E7513A"/>
</linearGradient>
<clipPath id="clip0_276_102">
<rect y="88" width="400" height="150" rx="75" fill="white"/>
</clipPath>
</defs>
</svg>
