<svg width="125" height="108" viewBox="0 0 125 108" fill="none" xmlns="http://www.w3.org/2000/svg">
<path d="M84.7039 9.61902L90.8615 9.61902C95.5091 16.6632 98.2143 25.102 98.2143 34.1726C98.2143 43.2432 95.5091 51.682 90.8615 58.7262L89.9847 58.7262C85.185 58.7262 80.8543 61.38 77.8923 65.1567C73.2901 71.0247 67.4899 75.9083 60.8599 79.4392C56.5615 81.7283 52.8316 85.1292 51.0229 89.6509C49.7574 92.8149 49.1071 96.1912 49.1071 99.5989V103.369C49.1071 105.835 47.1084 107.833 44.6428 107.833C37.2462 107.833 31.25 101.837 31.25 94.4404C31.25 87.5855 32.795 81.0914 35.5558 75.2874C37.1366 71.964 34.9189 67.6547 31.2387 67.6547H12.6326C6.52164 67.6547 1.05178 63.5238 0.404816 57.4472C0.137234 54.934 -6.77761e-07 52.3818 0 49.7976C4.44548e-06 32.8474 5.90405 17.2763 15.7678 5.02839C18.075 2.16356 21.6417 0.690429 25.3201 0.69043L49.2247 0.690436C52.1037 0.690437 54.9639 1.15458 57.6951 2.06499L76.2335 8.24446C78.9647 9.15487 81.8249 9.61902 84.7039 9.61902Z" fill="#FF0000"/>
<path d="M120.051 60.3505C123.245 52.2444 125 43.4134 125 34.1726C125 26.9102 123.916 19.901 121.901 13.2979C120.358 8.23818 115.451 5.15474 110.161 5.15474L104.758 5.15474C102.106 5.15474 100.468 8.1206 101.642 10.4988C105.164 17.6374 107.143 25.6739 107.143 34.1726C107.143 44.3403 104.31 53.8465 99.391 61.9449C97.9327 64.3457 99.5593 67.6547 102.368 67.6547H108.635C113.587 67.6547 118.235 64.9581 120.051 60.3505Z" fill="#FF0000"/>
</svg>
