<svg width="125" height="108" viewBox="0 0 125 108" fill="none" xmlns="http://www.w3.org/2000/svg">
<path d="M35.6715 98.381C33.1442 98.381 30.7914 96.9733 29.8666 94.6214C27.8779 89.5637 26.7857 84.0553 26.7857 78.2917C26.7857 67.8805 30.3496 58.3017 36.324 50.7087C37.2223 49.5671 38.539 48.8696 39.8937 48.3451C42.7081 47.2555 45.1937 45.2839 47.1077 42.8433C51.7099 36.9753 57.5101 32.0917 64.1401 28.5609C68.4385 26.2717 72.1684 22.8708 73.9771 18.3491C75.2426 15.1852 75.8929 11.8088 75.8929 8.40115V4.63103C75.8929 2.16548 77.8916 0.166748 80.3571 0.166748C87.7538 0.166748 93.75 6.16294 93.75 13.5596C93.75 20.4145 92.205 26.9086 89.4442 32.7126C87.8634 36.036 90.0811 40.3453 93.7613 40.3453H112.367C118.478 40.3453 123.948 44.4762 124.595 50.5528C124.863 53.0661 125 55.6182 125 58.2025C125 75.1526 119.096 90.7237 109.232 102.972C106.925 105.836 103.358 107.31 99.6799 107.31H75.7753C72.8963 107.31 70.0362 106.845 67.3049 105.935L48.7665 99.7556C46.0353 98.8452 43.1751 98.381 40.2961 98.381H35.6715Z" fill="#00FF26"/>
<path d="M4.94933 52.1139C1.75479 60.2199 0 69.0509 0 78.2917C0 85.5541 1.08383 92.5633 3.09856 99.1665C4.64234 104.226 9.54867 107.31 14.8386 107.31H20.2421C22.894 107.31 24.532 104.344 23.3585 101.966C19.8362 94.827 17.8571 86.7905 17.8571 78.2917C17.8571 68.124 20.6898 58.6179 25.609 50.5194C27.0673 48.1186 25.4407 44.8096 22.6316 44.8096H16.3652C11.4127 44.8096 6.76516 47.5062 4.94933 52.1139Z" fill="#00FF26"/>
</svg>
