<svg width="940" height="296" viewBox="0 0 940 296" fill="none" xmlns="http://www.w3.org/2000/svg">
<g clip-path="url(#clip0_15_2)">
<path fill-rule="evenodd" clip-rule="evenodd" d="M231.27 296.341H64.579C28.7361 296.341 -0.197266 267.408 -0.197266 231.565V64.8741C-0.197266 29.0313 28.7361 0.0978394 64.579 0.0978394H230.838C266.681 0.0978394 295.614 29.0313 295.614 64.8741V231.565C295.614 267.408 266.681 296.341 231.27 296.341Z" fill="#FF7705"/>
<path fill-rule="evenodd" clip-rule="evenodd" d="M99.1264 249.271C95.6716 249.271 87.4666 247.543 79.2616 245.384C71.0566 243.225 65.4427 240.202 65.4427 240.202C62.4198 238.475 61.1243 235.884 60.6924 233.293C60.6924 233.293 59.8287 224.656 59.8287 208.246C59.8287 195.722 60.2606 188.813 60.6924 187.085C61.1243 184.926 61.988 183.199 65.0108 183.199C68.0337 183.199 71.4885 183.199 80.5572 184.926C91.3532 187.085 96.5353 188.813 99.1264 189.676C101.286 190.54 103.877 192.268 104.308 195.722C104.308 195.722 105.604 204.791 105.604 218.61C105.604 229.838 104.74 241.066 104.308 244.52C103.877 247.543 102.581 249.271 99.1264 249.271ZM147.924 210.405C147.924 208.246 147.061 206.518 145.765 205.223L117.696 177.585C114.673 174.13 110.786 171.971 106.036 171.107C106.036 171.107 95.6716 168.516 79.6935 165.925C64.1472 163.334 59.8287 163.766 59.8287 163.766C46.0098 163.766 45.578 178.449 45.1461 180.176C44.7143 183.631 43.8506 193.131 43.8506 206.518C43.8506 222.065 44.7143 232.861 45.1461 239.77C46.4416 249.703 54.2148 254.453 57.6695 256.612C58.5332 257.044 68.4656 261.362 77.9661 264.385C84.4437 266.544 95.2398 269.567 99.99 269.999C101.717 270.431 111.218 271.726 115.968 265.681L145.765 227.247C147.061 225.519 147.493 224.656 147.493 222.065L147.924 210.405ZM213.133 154.265C208.814 153.834 204.496 153.834 200.609 153.834L133.674 160.311C133.674 160.311 129.355 161.175 126.764 164.198C124.605 166.789 124.605 168.948 124.605 168.948L126.332 170.675L152.675 197.45C155.698 200.473 157.425 203.064 157.425 207.382V222.496C157.425 225.088 156.993 227.679 155.698 229.406L141.447 248.839L155.698 254.453C161.312 256.18 166.062 256.18 171.676 255.316L232.997 241.066C232.997 241.066 244.225 238.043 244.225 227.679V190.108C244.225 189.245 243.793 188.813 242.93 188.813L203.632 196.586C202.337 197.018 201.041 198.313 201.041 199.609V217.746C201.041 219.042 202.337 219.905 203.632 219.474L215.724 216.883C216.156 216.883 217.019 217.314 217.019 218.178V224.224C217.019 225.519 216.156 226.383 214.86 226.383L201.041 229.406C201.041 229.406 191.541 231.997 191.541 221.633V198.313C191.541 188.381 198.882 187.085 198.882 187.085L242.066 178.88C243.362 178.88 244.225 177.585 244.225 176.721V167.221C244.225 156.856 234.293 155.993 234.293 155.993L213.133 154.265ZM132.81 56.2373C148.788 57.101 160.88 72.2155 160.016 90.7847C159.152 109.354 145.333 124.036 129.787 123.605C113.809 122.741 102.149 107.626 103.013 89.0573C103.877 70.0562 117.264 55.3736 132.81 56.2373ZM197.586 99.4215C198.45 86.8981 207.087 76.9657 217.883 77.3975C227.815 77.8294 236.02 88.6255 235.588 100.717C234.725 113.24 225.656 123.173 215.292 122.741C204.928 122.309 197.154 111.945 197.586 99.4215ZM251.567 101.149C251.567 76.102 232.997 56.2373 210.11 56.2373C196.723 56.2373 184.631 63.1467 176.858 73.9428C170.812 47.1686 148.788 27.7357 122.014 27.7357C90.0577 27.7357 64.579 55.3736 65.0108 89.0573C65.0108 123.173 90.9214 151.243 122.014 150.811C123.741 150.811 210.542 144.765 210.11 144.765C234.725 142.606 251.567 125.764 251.567 101.149Z" fill="white"/>
<path d="M354 138.032C351.791 138.032 350 136.241 350 134.032V27.0988C350 24.8897 351.791 23.0988 354 23.0988H387.86C399.917 23.0988 408.931 26.1412 414.903 32.2258C420.988 38.3105 424.03 46.4234 424.03 56.5646V65.5226C424.03 75.6637 420.988 83.833 414.903 90.0304C408.931 96.1151 399.917 99.1574 387.86 99.1574H374.282C372.073 99.1574 370.282 100.948 370.282 103.157V134.032C370.282 136.241 368.491 138.032 366.282 138.032H354ZM387.86 42.536H374.282C372.073 42.536 370.282 44.3269 370.282 46.536V75.7202C370.282 77.9293 372.073 79.7202 374.282 79.7202H387.86C392.818 79.7202 396.593 78.4807 399.185 76.0018C401.889 73.5228 403.241 70.0298 403.241 65.5226V56.5646C403.241 52.1701 401.889 48.7334 399.185 46.2544C396.593 43.7755 392.818 42.536 387.86 42.536Z" fill="white"/>
<path d="M508.597 138.877C502.85 138.877 498.23 137.694 494.737 135.327C493.004 134.114 491.508 132.753 490.248 131.243C488.496 129.142 485.227 128.474 483.094 130.188C479.735 132.888 476.461 134.996 473.272 136.511C468.765 138.652 463.919 139.722 458.736 139.722C451.187 139.722 445.609 137.299 442.003 132.454C438.51 127.609 436.764 121.468 436.764 114.031C436.764 109.073 437.665 104.735 439.468 101.017C441.383 97.1855 444.482 94.1995 448.764 92.0586C453.046 89.9177 458.905 88.8472 466.342 88.8472C469.272 88.8472 472.314 89.0726 475.469 89.5233C477.052 89.6929 478.634 89.8908 480.217 90.1171C482.683 90.4696 484.934 88.5884 484.934 86.0979V80.9033C484.934 76.1708 483.638 72.9594 481.047 71.2692C478.455 69.4664 474.962 68.5649 470.567 68.5649C467.187 68.5649 463.469 69.0157 459.412 69.9171C456.628 70.5534 453.676 71.4423 450.556 72.5838C448.38 73.3796 445.939 72.2791 445.2 70.0837L442.19 61.1458C441.515 59.1416 442.516 56.9505 444.498 56.2148C454.498 52.5042 463.639 50.6489 471.92 50.6489C480.258 50.6489 486.681 52.0574 491.188 54.8744C495.808 57.6914 499.019 61.4098 500.822 66.0297C502.625 70.6495 503.526 75.6074 503.526 80.9033V113.862C503.526 115.552 503.977 117.186 504.878 118.764C505.892 120.228 507.808 120.961 510.625 120.961V120.961C511.652 120.961 512.484 121.793 512.484 122.82V134.989C512.484 137.136 510.744 138.877 508.597 138.877V138.877ZM455.525 113.693C455.525 116.735 456.201 119.158 457.553 120.961C458.905 122.651 460.877 123.496 463.469 123.496C466.06 123.496 468.99 122.82 472.258 121.468C475.26 120.226 479.07 117.462 483.689 113.176C484.489 112.433 484.934 111.385 484.934 110.294V108.102C484.934 106.156 483.535 104.484 481.608 104.212C476.896 103.547 472.258 103.214 467.694 103.214C463.3 103.214 460.145 104.115 458.229 105.918C456.426 107.721 455.525 110.313 455.525 113.693Z" fill="white"/>
<path d="M577.698 66.0861C577.698 68.2953 575.904 70.0674 573.702 70.25C569.838 70.5704 566.099 71.3609 562.486 72.6214C558.284 74.0221 554.215 76.2223 550.279 79.2221C549.327 79.9482 548.795 81.0906 548.795 82.2884V134.032C548.795 136.241 547.005 138.032 544.795 138.032H533.358C531.149 138.032 529.358 136.241 529.358 134.032V56.3391C529.358 54.13 531.149 52.3391 533.358 52.3391H543.804C546.001 52.3391 547.781 54.1199 547.781 56.3167V56.3167C547.781 59.8026 551.996 61.6476 554.744 59.5036C557.756 57.154 560.562 55.3292 563.162 54.0293C566.492 52.3642 570.007 51.3142 573.707 50.8794C575.901 50.6215 577.698 52.4398 577.698 54.6489V66.0861Z" fill="white"/>
<path d="M609.595 90.1994V100.172C609.595 107.383 610.891 112.792 613.482 116.397C616.074 120.003 620.243 121.806 625.99 121.806C628.807 121.806 631.962 121.468 635.455 120.792C637.912 120.254 640.5 119.534 643.219 118.63C645.366 117.916 647.721 119.018 648.45 121.16L651.472 130.044C652.158 132.059 651.149 134.265 649.149 134.99C645.377 136.356 641.771 137.426 638.328 138.201C633.821 139.215 629.37 139.722 624.976 139.722C613.708 139.722 605.088 136.116 599.116 128.905C593.144 121.693 590.158 112.116 590.158 100.172V90.1994C590.158 78.1427 593.144 68.5649 599.116 61.4661C605.088 54.2547 613.708 50.6489 624.976 50.6489C629.257 50.6489 633.596 51.156 637.99 52.1701C641.301 52.9341 644.739 53.9539 648.306 55.2296C650.306 55.9449 651.324 58.142 650.652 60.1571L647.601 69.3115C646.878 71.4805 644.489 72.5928 642.326 71.8508C635.942 69.6602 630.496 68.5649 625.99 68.5649C620.243 68.5649 616.074 70.3678 613.482 73.9736C610.891 77.4666 609.595 82.8752 609.595 90.1994Z" fill="white"/>
<path d="M734.337 129.549C735.02 131.559 734.018 133.76 732.025 134.489C727.466 136.156 723.121 137.393 718.991 138.201C713.808 139.215 708.906 139.722 704.286 139.722C691.554 139.722 681.92 136.116 675.384 128.905C668.849 121.693 665.581 112.116 665.581 100.172V90.0304C665.581 82.0301 667.046 75.1003 669.976 69.241C672.905 63.3817 677.074 58.8182 682.483 55.5505C687.892 52.2828 694.258 50.6489 701.582 50.6489C707.554 50.6489 713.132 51.8884 718.315 54.3673C723.611 56.7336 727.893 60.5084 731.16 65.6916C734.541 70.7622 736.231 77.2976 736.231 85.2978C736.231 87.6641 736.062 90.1994 735.724 92.9037C735.503 94.6001 735.185 96.3689 734.77 98.2101C734.373 99.9747 732.777 101.186 730.968 101.186H688.473C686.214 101.186 684.372 103.063 684.678 105.302C685.356 110.268 686.991 114.135 689.582 116.904C692.849 120.397 698.089 122.144 705.301 122.144C709.132 122.144 713.075 121.693 717.132 120.792C720.035 120.164 722.992 119.318 726.004 118.253C728.178 117.485 730.605 118.579 731.347 120.762L734.337 129.549ZM701.582 67.0438C696.399 67.0438 692.342 68.734 689.413 72.1143C687.282 74.5865 685.828 77.8971 685.051 82.0461C684.623 84.3298 686.489 86.3119 688.813 86.3119H715.43C716.321 86.3119 717.132 85.6821 717.132 84.7908V84.7908C717.132 84.2274 717.132 83.7203 717.132 83.2696C717.132 77.861 715.611 73.8045 712.568 71.1002C709.526 68.3959 705.864 67.0438 701.582 67.0438Z" fill="white"/>
<path d="M778.568 32.1133C778.568 34.3224 776.777 36.1133 774.568 36.1133H762.116C759.907 36.1133 758.116 34.3224 758.116 32.1133V20C758.116 17.7909 759.907 16 762.116 16H774.568C776.777 16 778.568 17.7909 778.568 20V32.1133ZM778.061 134.032C778.061 136.241 776.27 138.032 774.061 138.032H762.623C760.414 138.032 758.623 136.241 758.623 134.032V56.3391C758.623 54.13 760.414 52.3391 762.623 52.3391H774.061C776.27 52.3391 778.061 54.13 778.061 56.3391V134.032Z" fill="white"/>
<path d="M853.179 66.0861C853.179 68.2953 851.385 70.0674 849.183 70.25C845.319 70.5704 841.581 71.3609 837.967 72.6214C833.765 74.0221 829.696 76.2223 825.761 79.2221C824.808 79.9482 824.277 81.0906 824.277 82.2884V134.032C824.277 136.241 822.486 138.032 820.277 138.032H808.84C806.63 138.032 804.84 136.241 804.84 134.032V56.3391C804.84 54.13 806.63 52.3391 808.84 52.3391H819.285C821.482 52.3391 823.263 54.1199 823.263 56.3167V56.3167C823.263 59.8026 827.477 61.6476 830.225 59.5036C833.238 57.154 836.044 55.3292 838.643 54.0293C841.974 52.3642 845.488 51.3142 849.188 50.8794C851.382 50.6215 853.179 52.4398 853.179 54.6489V66.0861Z" fill="white"/>
<path d="M940.345 90.0304V100.172C940.345 112.116 937.078 121.693 930.542 128.905C924.007 136.116 914.767 139.722 902.823 139.722C890.879 139.722 881.639 136.116 875.104 128.905C868.569 121.693 865.301 112.116 865.301 100.172V90.0304C865.301 78.0863 868.512 68.5649 874.935 61.4661C881.47 54.2547 890.766 50.6489 902.823 50.6489C914.88 50.6489 924.12 54.2547 930.542 61.4661C937.078 68.5649 940.345 78.0863 940.345 90.0304ZM920.401 90.0304C920.401 83.1569 918.88 77.8046 915.838 73.9736C912.795 70.0298 908.457 68.0579 902.823 68.0579C897.189 68.0579 892.851 70.0298 889.809 73.9736C886.766 77.8046 885.245 83.1569 885.245 90.0304V100.172C885.245 107.045 886.766 112.454 889.809 116.397C892.851 120.341 897.189 122.313 902.823 122.313C908.457 122.313 912.795 120.341 915.838 116.397C918.88 112.454 920.401 107.045 920.401 100.172V90.0304Z" fill="white"/>
<path fill-rule="evenodd" clip-rule="evenodd" d="M605.36 188.107H605.606C612.255 186.875 621.859 185.398 632.94 185.398C656.087 185.398 668.646 195.74 668.646 216.672V275.525C668.646 277.249 667.168 278.972 665.445 278.972H651.655C651.162 278.972 649.931 278.726 649.192 277.987C648.453 277.495 648.207 276.264 648.207 275.771V274.54C646.237 276.756 642.051 279.957 630.231 280.204C617.672 280.45 611.516 277.002 608.561 274.786C604.867 272.077 601.912 268.63 599.696 264.69C598.465 262.228 597.48 259.519 596.987 254.594C596.495 249.176 597.48 244.005 598.957 240.558C603.144 230.461 613.732 224.798 632.447 223.567C638.111 223.32 647.468 223.074 647.468 223.074V216.918C647.468 206.329 643.036 204.852 633.432 204.852C619.642 204.852 607.33 207.314 605.114 207.807C604.129 207.807 603.636 207.56 603.39 207.314C602.897 206.822 602.651 206.083 602.651 205.837V192.047C602.651 190.569 603.882 189.338 605.36 188.845C605.114 188.107 605.114 188.107 605.36 188.107ZM617.672 251.146C618.165 245.236 623.582 243.266 624.814 243.02C627.522 242.035 631.216 241.296 635.895 241.05C641.558 240.558 646.976 240.804 646.976 240.804V259.519C642.297 261.735 638.603 262.72 632.94 262.966H631.216C626.045 262.966 618.657 261.489 617.426 252.378C617.672 251.639 617.672 251.393 617.672 251.146Z" fill="url(#paint0_linear_15_2)"/>
<path fill-rule="evenodd" clip-rule="evenodd" d="M693.763 188.107C691.793 188.107 690.562 189.831 690.315 191.554V275.279C690.315 275.771 690.562 276.51 691.3 277.495C692.039 278.48 693.27 278.48 693.763 278.48H709.523C711.739 278.48 712.724 277.002 712.724 275.032V191.8C712.724 189.83 711.247 188.353 709.277 188.353H693.763V188.107Z" fill="url(#paint1_linear_15_2)"/>
<path fill-rule="evenodd" clip-rule="evenodd" d="M418.703 147.968C417.472 147.968 416.487 148.461 415.748 149.2L376.349 199.188C375.364 200.419 372.901 199.434 372.901 197.464V151.662C372.901 150.431 372.409 149.692 371.916 148.953C371.424 148.461 370.685 147.722 369.454 147.722H353.694C351.477 147.722 350 149.446 350 151.416V274.786C350 276.018 350.492 276.756 350.985 277.249C351.724 277.987 352.709 278.234 353.447 278.234H369.207C371.67 278.234 372.901 276.756 372.901 274.786V221.597C372.901 217.41 376.102 218.149 377.334 219.627L424.86 276.264C425.845 277.495 427.322 278.234 429.046 278.234H450.223C450.716 278.234 450.962 277.987 451.208 277.495C451.454 277.002 451.454 276.264 450.962 276.018L396.787 212.485C396.048 211.747 395.802 210.762 396.295 210.023L441.358 149.692C441.604 149.446 441.851 148.953 441.358 148.215C440.866 147.722 440.619 147.722 440.373 147.722L418.703 147.968Z" fill="url(#paint2_linear_15_2)"/>
<path fill-rule="evenodd" clip-rule="evenodd" d="M693.763 147.968C691.547 147.968 690.315 149.446 690.315 151.169V169.884C690.315 171.854 691.793 173.332 693.763 173.332H709.277C711.493 173.332 712.97 171.854 712.97 169.884V151.416C712.97 149.446 711.493 147.968 709.523 147.968H693.763Z" fill="url(#paint3_linear_15_2)"/>
<path fill-rule="evenodd" clip-rule="evenodd" d="M544.782 244.99C544.29 246.714 541.827 246.714 541.089 244.99L521.143 190.323C520.65 189.338 519.419 188.353 517.941 188.353H507.599C505.875 188.353 504.644 189.338 504.151 190.569L484.205 244.99C483.713 246.714 480.758 246.714 480.512 244.99L465.49 192.539C465.49 192.293 465.244 190.323 464.013 189.338C462.782 188.599 462.535 188.599 461.058 188.353H447.268C445.052 188.353 443.082 190.077 443.574 192.539C443.574 192.785 466.229 274.047 466.722 275.771C466.968 276.756 467.214 277.495 467.953 277.987C468.692 278.48 469.43 278.972 470.415 278.972H492.331C494.055 278.972 495.286 278.234 495.779 277.002L499.226 269.123L511.785 235.633C512.524 234.155 514.74 233.909 515.233 235.633L530.254 276.51C530.5 277.249 530.746 277.741 531.485 278.234C531.978 278.726 532.963 278.972 533.701 278.972H556.849C558.819 278.972 560.296 277.987 560.542 276.51L561.527 272.57C561.527 272.57 562.02 270.354 563.251 266.168L581.966 193.524C582.458 191.308 581.473 189.092 579.257 188.599H563.251C561.527 188.599 560.296 189.584 559.804 191.062C559.311 192.047 545.275 243.266 544.782 244.99Z" fill="url(#paint4_linear_15_2)"/>
</g>
<defs>
<linearGradient id="paint0_linear_15_2" x1="633.763" y1="279.67" x2="618.096" y2="-128.211" gradientUnits="userSpaceOnUse">
<stop stop-color="#FF6000"/>
<stop offset="1" stop-color="#FF8D0A"/>
</linearGradient>
<linearGradient id="paint1_linear_15_2" x1="702.035" y1="278.399" x2="657.18" y2="-107.041" gradientUnits="userSpaceOnUse">
<stop stop-color="#FF6000"/>
<stop offset="1" stop-color="#FF8D0A"/>
</linearGradient>
<linearGradient id="paint2_linear_15_2" x1="400.524" y1="278.368" x2="379.28" y2="-285.293" gradientUnits="userSpaceOnUse">
<stop offset="0.021" stop-color="#FF6000"/>
<stop offset="1" stop-color="#FF8D0A"/>
</linearGradient>
<linearGradient id="paint3_linear_15_2" x1="701.734" y1="280.34" x2="701.734" y2="-291.372" gradientUnits="userSpaceOnUse">
<stop stop-color="#FF6000"/>
<stop offset="1" stop-color="#FF8D0A"/>
</linearGradient>
<linearGradient id="paint4_linear_15_2" x1="516.171" y1="278.4" x2="508.691" y2="-112.338" gradientUnits="userSpaceOnUse">
<stop stop-color="#FF6000"/>
<stop offset="1" stop-color="#FF8D0A"/>
</linearGradient>
<clipPath id="clip0_15_2">
<rect width="940" height="296" fill="white"/>
</clipPath>
</defs>
</svg>
