<svg width="125" height="125" viewBox="0 0 125 125" fill="none" xmlns="http://www.w3.org/2000/svg">
<rect x="2.44141" y="2.44141" width="120.117" height="120.117" rx="60.0586" fill="#FF7705"/>
<rect x="2.44141" y="2.44141" width="120.117" height="120.117" rx="60.0586" stroke="#F9FEFF" stroke-width="4.88281"/>
<path fill-rule="evenodd" clip-rule="evenodd" d="M47.8531 92.4343C46.8351 92.4343 44.4172 91.9253 41.9994 91.2891C39.5815 90.6528 37.9272 89.762 37.9272 89.762C37.0364 89.253 36.6547 88.4894 36.5274 87.7259C36.5274 87.7259 36.2729 85.1808 36.2729 80.3451C36.2729 76.6547 36.4001 74.6186 36.5274 74.1096C36.6547 73.4733 36.9092 72.9643 37.8 72.9643C38.6907 72.9643 39.7088 72.9643 42.3811 73.4733C45.5625 74.1096 47.0896 74.6186 47.8531 74.8731C48.4894 75.1277 49.2529 75.6367 49.3802 76.6547C49.3802 76.6547 49.7619 79.3271 49.7619 83.3992C49.7619 86.7079 49.5074 90.0165 49.3802 91.0345C49.2529 91.9253 48.8711 92.4343 47.8531 92.4343ZM62.2329 80.9814C62.2329 80.3451 61.9784 79.8361 61.5967 79.4543L53.3251 71.31C52.4343 70.292 51.289 69.6557 49.8892 69.4012C49.8892 69.4012 46.8351 68.6376 42.1266 67.8741C37.5454 67.1106 36.2729 67.2378 36.2729 67.2378C32.2007 67.2378 32.0735 71.5645 31.9462 72.0735C31.819 73.0916 31.5645 75.8912 31.5645 79.8361C31.5645 84.4173 31.819 87.5987 31.9462 89.6347C32.328 92.5616 34.6186 93.9614 35.6366 94.5977C35.8911 94.7249 38.818 95.9975 41.6176 96.8883C43.5264 97.5246 46.7078 98.4153 48.1076 98.5426C48.6166 98.6699 51.4163 99.0516 52.8161 97.2701L61.5967 85.9443C61.9784 85.4353 62.1057 85.1808 62.1057 84.4173L62.2329 80.9814ZM81.4485 64.4382C80.1759 64.311 78.9034 64.311 77.7581 64.311L58.0335 66.2198C58.0335 66.2198 56.761 66.4743 55.9974 67.3651C55.3612 68.1286 55.3612 68.7649 55.3612 68.7649L55.8702 69.2739L63.6327 77.1637C64.5235 78.0545 65.0325 78.8181 65.0325 80.0906V84.5445C65.0325 85.3081 64.9053 86.0716 64.5235 86.5806L60.3241 92.3071L64.5235 93.9614C66.1778 94.4704 67.5776 94.4704 69.232 94.2159L87.3022 90.0165C87.3022 90.0165 90.6108 89.1257 90.6108 86.0716V75.0004C90.6108 74.7459 90.4836 74.6186 90.2291 74.6186L78.6488 76.9092C78.2671 77.0365 77.8853 77.4182 77.8853 77.8V83.1447C77.8853 83.5265 78.2671 83.781 78.6488 83.6538L82.212 82.8902C82.3392 82.8902 82.5938 83.0175 82.5938 83.272V85.0536C82.5938 85.4353 82.3392 85.6898 81.9575 85.6898L77.8853 86.5806C77.8853 86.5806 75.0857 87.3442 75.0857 84.29V77.4182C75.0857 74.4914 77.249 74.1096 77.249 74.1096L89.9745 71.6918C90.3563 71.6918 90.6108 71.31 90.6108 71.0555V68.2559C90.6108 65.2018 87.684 64.9472 87.684 64.9472L81.4485 64.4382ZM57.779 35.5513C62.4874 35.8058 66.0506 40.2598 65.7961 45.7317C65.5416 51.2037 61.4694 55.5304 56.8882 55.4031C52.1798 55.1486 48.7439 50.6947 48.9984 45.2227C49.2529 39.6235 53.1978 35.2968 57.779 35.5513ZM76.8673 48.2768C77.1218 44.5864 79.6669 41.6596 82.8483 41.7868C85.7751 41.9141 88.193 45.0955 88.0657 48.6586C87.8112 52.349 85.1389 55.2759 82.0847 55.1486C79.0306 55.0213 76.74 51.9672 76.8673 48.2768ZM92.7742 48.7858C92.7742 41.405 87.3022 35.5513 80.5577 35.5513C76.6128 35.5513 73.0496 37.5874 70.759 40.7688C68.9775 32.8789 62.4874 27.1525 54.5976 27.1525C45.1807 27.1525 37.6727 35.2968 37.8 45.2227C37.8 55.2758 45.4353 63.5474 54.5976 63.4202C55.1066 63.4202 80.6849 61.6386 80.5577 61.6386C87.8112 61.0023 92.7742 56.0394 92.7742 48.7858Z" fill="white"/>
</svg>
